<svg xmlns="http://www.w3.org/2000/svg" width="24" height="24" fill="none" viewBox="0 0 24 24"><path stroke="#6366f1" stroke-linecap="round" stroke-linejoin="round" stroke-width="2" d="M6 11.74c.84-.73 1.82-1.3 2.88-1.69.98-.36 2.03-.55 3.12-.55s2.14.19 3.12.55c1.06.39 2.04.96 2.88 1.69M3 8c.89-.74 1.87-1.37 2.92-1.87 1.83-.89 3.9-1.38 6.08-1.38s4.25.49 6.08 1.38c1.05.5 2.03 1.13 2.92 1.87M9 15a4.48 4.48 0 0 1 3-1.16c1.14 0 2.18.43 3 1.16"/><path fill="#6366f1" d="M12 20c-.2 0-.4-.04-.58-.11-.18-.08-.35-.19-.48-.34-.14-.13-.25-.3-.32-.48q-.12-.27-.12-.57c0-.1.01-.19.02-.29.02-.1.05-.19.1-.29.04-.08.08-.18.13-.25.06-.08.12-.17.19-.23.06-.07.14-.13.23-.19.07-.05.17-.1.25-.13.1-.05.19-.07.29-.1.19-.04.38-.04.58 0 .09.02.19.05.29.1.08.04.18.08.25.13.08.06.17.12.23.19.29.28.44.66.44 1.05 0 .2-.04.4-.12.57-.07.18-.18.35-.32.48-.13.14-.3.25-.48.34-.18.07-.37.11-.58.11z"/></svg>